<?xml version="1.0" encoding="UTF-8" standalone="no"?>
<!-- Created with Inkscape (http://www.inkscape.org/) -->

<svg
   xmlns:dc="http://purl.org/dc/elements/1.1/"
   xmlns:cc="http://creativecommons.org/ns#"
   xmlns:rdf="http://www.w3.org/1999/02/22-rdf-syntax-ns#"
   xmlns:svg="http://www.w3.org/2000/svg"
   xmlns="http://www.w3.org/2000/svg"
   xmlns:sodipodi="http://sodipodi.sourceforge.net/DTD/sodipodi-0.dtd"
   xmlns:inkscape="http://www.inkscape.org/namespaces/inkscape"
   width="262.88623"
   height="268.24472"
   viewBox="0 0 69.555313 70.973087"
   version="1.1"
   id="svg4071"
   inkscape:version="0.92.1 r15371"
   sodipodi:docname="logo.svg">
  <sodipodi:namedview
     id="base"
     pagecolor="#ffffff"
     bordercolor="#666666"
     borderopacity="1.0"
     inkscape:pageopacity="0.0"
     inkscape:pageshadow="2"
     inkscape:zoom="1.4904361"
     inkscape:cx="8.2572508"
     inkscape:cy="31.381303"
     inkscape:document-units="mm"
     inkscape:current-layer="layer1"
     showgrid="false"
     units="px"
     inkscape:window-width="1920"
     inkscape:window-height="1056"
     inkscape:window-x="0"
     inkscape:window-y="24"
     inkscape:window-maximized="1" />
  <defs
     id="defs4065">
    <filter
       style="color-interpolation-filters:sRGB"
       inkscape:label="Invert"
       id="filter83">
      <feColorMatrix
         type="hueRotate"
         values="180"
         result="color1"
         id="feColorMatrix79" />
      <feColorMatrix
         values="-1 0 0 0 1 0 -1 0 0 1 0 0 -1 0 1 -0.21 -0.72 -0.07 2 0 "
         result="fbSourceGraphic"
         id="feColorMatrix81" />
      <feColorMatrix
         result="fbSourceGraphicAlpha"
         in="fbSourceGraphic"
         values="0 0 0 -1 0 0 0 0 -1 0 0 0 0 -1 0 0 0 0 1 0"
         id="feColorMatrix85" />
      <feColorMatrix
         id="feColorMatrix87"
         type="hueRotate"
         values="180"
         result="color1"
         in="fbSourceGraphic" />
      <feColorMatrix
         id="feColorMatrix89"
         values="-1 0 0 0 1 0 -1 0 0 1 0 0 -1 0 1 -0.21 -0.72 -0.07 2 0 "
         result="fbSourceGraphic" />
      <feColorMatrix
         result="fbSourceGraphicAlpha"
         in="fbSourceGraphic"
         values="0 0 0 -1 0 0 0 0 -1 0 0 0 0 -1 0 0 0 0 1 0"
         id="feColorMatrix103" />
      <feColorMatrix
         id="feColorMatrix105"
         type="hueRotate"
         values="180"
         result="color1"
         in="fbSourceGraphic" />
      <feColorMatrix
         id="feColorMatrix107"
         values="-1 0 0 0 1 0 -1 0 0 1 0 0 -1 0 1 -0.21 -0.72 -0.07 2 0 "
         result="color2" />
    </filter>
    <filter
       style="color-interpolation-filters:sRGB"
       inkscape:label="Invert"
       id="filter95">
      <feColorMatrix
         type="hueRotate"
         values="180"
         result="color1"
         id="feColorMatrix91" />
      <feColorMatrix
         values="-1 0 0 0 1 0 -1 0 0 1 0 0 -1 0 1 -0.21 -0.72 -0.07 2 0 "
         result="fbSourceGraphic"
         id="feColorMatrix93" />
      <feColorMatrix
         result="fbSourceGraphicAlpha"
         in="fbSourceGraphic"
         values="0 0 0 -1 0 0 0 0 -1 0 0 0 0 -1 0 0 0 0 1 0"
         id="feColorMatrix109" />
      <feColorMatrix
         id="feColorMatrix111"
         type="hueRotate"
         values="180"
         result="color1"
         in="fbSourceGraphic" />
      <feColorMatrix
         id="feColorMatrix113"
         values="-1 0 0 0 1 0 -1 0 0 1 0 0 -1 0 1 -0.21 -0.72 -0.07 2 0 "
         result="color2" />
    </filter>
    <filter
       style="color-interpolation-filters:sRGB"
       inkscape:label="Invert"
       id="filter101">
      <feColorMatrix
         type="hueRotate"
         values="180"
         result="color1"
         id="feColorMatrix97" />
      <feColorMatrix
         values="-1 0 0 0 1 0 -1 0 0 1 0 0 -1 0 1 -0.21 -0.72 -0.07 2 0 "
         result="fbSourceGraphic"
         id="feColorMatrix99" />
      <feColorMatrix
         result="fbSourceGraphicAlpha"
         in="fbSourceGraphic"
         values="0 0 0 -1 0 0 0 0 -1 0 0 0 0 -1 0 0 0 0 1 0"
         id="feColorMatrix115" />
      <feColorMatrix
         id="feColorMatrix117"
         type="hueRotate"
         values="180"
         result="color1"
         in="fbSourceGraphic" />
      <feColorMatrix
         id="feColorMatrix119"
         values="-1 0 0 0 1 0 -1 0 0 1 0 0 -1 0 1 -0.21 -0.72 -0.07 2 0 "
         result="color2" />
    </filter>
    <filter
       style="color-interpolation-filters:sRGB"
       inkscape:label="Invert"
       id="filter4612">
      <feColorMatrix
         type="hueRotate"
         values="180"
         result="color1"
         id="feColorMatrix4608" />
      <feColorMatrix
         values="-1 0 0 0 1 0 -1 0 0 1 0 0 -1 0 1 -0.21 -0.72 -0.07 2 0 "
         result="color2"
         id="feColorMatrix4610" />
    </filter>
    <filter
       style="color-interpolation-filters:sRGB"
       inkscape:label="Invert"
       id="filter4618">
      <feColorMatrix
         type="hueRotate"
         values="180"
         result="color1"
         id="feColorMatrix4614" />
      <feColorMatrix
         values="-1 0 0 0 1 0 -1 0 0 1 0 0 -1 0 1 -0.21 -0.72 -0.07 2 0 "
         result="color2"
         id="feColorMatrix4616" />
    </filter>
    <filter
       style="color-interpolation-filters:sRGB"
       inkscape:label="Invert"
       id="filter4624">
      <feColorMatrix
         type="hueRotate"
         values="180"
         result="color1"
         id="feColorMatrix4620" />
      <feColorMatrix
         values="-1 0 0 0 1 0 -1 0 0 1 0 0 -1 0 1 -0.21 -0.72 -0.07 2 0 "
         result="color2"
         id="feColorMatrix4622" />
    </filter>
  </defs>
  <metadata
     id="metadata4068">
    <rdf:RDF>
      <cc:Work
         rdf:about="">
        <dc:format>image/svg+xml</dc:format>
        <dc:type
           rdf:resource="http://purl.org/dc/dcmitype/StillImage" />
        <dc:title></dc:title>
      </cc:Work>
    </rdf:RDF>
  </metadata>
  <g
     transform="translate(3.3790327,-227.25557)"
     id="layer1"
     inkscape:groupmode="layer"
     inkscape:label="Layer 1">
    <g
       id="layer1-3"
       style="fill:#151515;stroke:none;filter:url(#filter4612)"
       transform="matrix(5.5648123,0,0,5.6895578,2.1509185,-1397.1691)">
      <path
         style="fill:#ffffff;fill-opacity:0.94117647;stroke-width:1.45483005;filter:url(#filter83)"
         id="path3864"
         d="m 3.4027002,296.89634 c -0.029954,-0.0803 0.042791,-0.23697 0.175444,-0.35747 0.077025,-0.0723 0.098421,-0.11246 0.059908,-0.11648 -0.034233,0 -0.1240948,-0.008 -0.2011187,-0.0161 -0.077025,-0.008 -0.1283739,0 -0.1198162,0.0161 0.012838,0.0161 -0.017116,0.0321 -0.064187,0.0321 -0.05135,0.004 -0.072745,-0.012 -0.055629,-0.0402 0.012838,-0.0281 -0.00428,-0.0161 -0.038512,0.0201 -0.034233,0.0402 -0.072745,0.0602 -0.089862,0.0442 -0.012837,-0.012 -0.072745,0.0161 -0.132653,0.0683 -0.1326529,0.11648 -0.1882815,0.0803 -0.089862,-0.0602 0.09842,-0.13656 0.3209345,-0.21689 0.7873602,-0.28116 0.2439104,-0.0321 0.4321925,-0.0803 0.4792631,-0.12049 0.042791,-0.0361 0.1497697,-0.1928 0.2353521,-0.34944 0.4056651,-0.82782 -0.5407066,-1.25883 -1.2195527,-1.59458 -0.4236347,-0.20886 -0.6076367,-0.33739 -0.8943389,-0.6306 -0.286702,-0.29723 -0.6547074,-0.86356 -0.7274524,-1.12866 -0.025675,-0.0924 -0.055629,-0.42575 -0.068466,-0.74306 -0.00856,-0.31731 -0.038512,-0.67479 -0.064187,-0.79528 -0.025675,-0.1205 -0.072745,-0.59445 -0.102699,-1.05636 -0.047071,-0.79126 -0.055629,-0.83545 -0.1454909,-0.89569 -0.077024,-0.0482 -0.085582,-0.0763 -0.05135,-0.11648 0.034233,-0.0402 0.025675,-0.0683 -0.038512,-0.10845 -0.0513498,-0.0321 -0.0770245,-0.0723 -0.0599081,-0.0844 0.0128374,-0.0161 -0.0128372,-0.0281 -0.0641867,-0.0281 -0.0470706,0 -0.10269932,-0.0161 -0.11553677,-0.0402 -0.0128372,-0.0201 -0.064187,-0.0402 -0.11125762,-0.0402 -0.0427912,0 -0.0813033,-0.0161 -0.0813033,-0.0402 0,-0.0201 0.0213958,-0.0402 0.0427912,-0.0402 0.0256749,0 0.0427912,-0.0161 0.0427912,-0.0361 0,-0.0201 -0.0770241,-0.0482 -0.17116516,-0.0643 -0.13693252,-0.0201 -0.16260685,-0.0402 -0.12837422,-0.0803 0.0342332,-0.0362 0.0256749,-0.0562 -0.0256746,-0.0763 -0.0556287,-0.0201 -0.0599078,-0.0362 -0.0213955,-0.0803 0.0385118,-0.0442 0.0256746,-0.0602 -0.0684664,-0.0844 0,0 -0.11981564,-0.0281 -0.11981564,-0.0281 0,0 0.13693224,-0.10845 0.13693224,-0.10845 0,0 0.13693223,-0.10845 0.13693223,-0.10845 0,0 -0.15832798,0.012 -0.15832798,0.012 -0.13693224,0.008 -0.14549054,0.004 -0.0513492,-0.0241 0.0898616,-0.0321 0.0941407,-0.0362 0.0213952,-0.0402 -0.0813033,-0.008 -0.0813033,-0.008 -0.008558,-0.0602 0.0727453,-0.0522 0.0684661,-0.0602 -0.0513495,-0.0843 -0.17544459,-0.0362 -0.17116544,-0.10041 0.008558,-0.10041 0.12837394,-0.004 0.13265309,-0.008 0.0556284,-0.0602 -0.072745,-0.0522 -0.072745,-0.0602 -0.0128372,-0.0844 0.0385121,-0.012 0.0898619,-0.012 0.11553677,0.004 0.10269903,0.0602 0.0299538,-0.0643 -0.14121139,-0.23698 -0.16688629,-0.1687 -0.17544459,-0.18476 -0.0898621,-0.18476 0.0556289,0 0.11125762,0.0201 0.12409479,0.0402 0.0128375,0.0241 0.0470706,0.0402 0.0684664,0.0402 0.072745,0 -0.0342332,-0.14058 -0.14976969,-0.20083 -0.0599081,-0.0281 -0.11125734,-0.0683 -0.11125734,-0.0884 0,-0.0924 0.41348009,0.17956 0.5605664,0.45788 0.0513495,0.0884 -0.0128375,0.0964 -0.094141,0.008 -0.0513495,-0.0602 -0.26530645,-0.17673 -0.32093484,-0.17673 -0.0599081,0 0.13693224,0.17271 0.23963127,0.20886 0.21823581,0.0844 0.29953938,0.0723 0.29953938,-0.0361 0,-0.0522 -0.0171166,-0.13255 -0.0427915,-0.17271 -0.0299538,-0.0562 -0.0178877,-0.10335 0.0256749,-0.13657 0.0273243,-0.0289 -0.37267384,-0.0815 -0.54789395,-0.12791 -0.30458681,-0.0827 0.62346486,0.0156 0.67626789,0.0355 0.0684664,0.0321 0.19684033,0.0683 0.28242273,0.0843 0.4407511,0.0763 0.8558269,0.36551 1.0569461,0.74307 0.05135,0.0924 0.2182358,0.46592 0.3722847,0.83544 0.397959,0.96398 0.7873602,1.56245 1.1425283,1.75524 0.2225146,0.1205 0.9670839,0.30928 1.7843988,0.44986 0.911455,0.15664 1.5832793,0.10443 1.5832793,-0.1205 0,-0.11648 0.1198151,-0.50609 0.1240948,-0.40969 0.00856,0.16066 0.051349,0.0201 0.1283739,-0.40166 0.1711649,-0.93987 0.2353522,-1.22103 0.2695851,-1.22103 0.017117,0 0.034233,-0.0321 0.034233,-0.0723 0,-0.12451 0.1711654,-0.57035 0.3637266,-0.95193 0.09842,-0.19681 0.2053987,-0.42977 0.2310736,-0.5101 0.059907,-0.1687 0.1583274,-0.21288 0.1155362,-0.0522 -0.04707,0.18075 0.04707,0.10443 0.1112576,-0.0924 0.042791,-0.11648 0.094141,-0.19279 0.1412111,-0.20083 0.068467,-0.0161 0.072745,0.008 0.047071,0.18075 -0.021396,0.13656 -0.017117,0.16466 0.012837,0.12048 0.025675,-0.0321 0.04707,-0.0763 0.04707,-0.11245 0,-0.0321 0.025675,-0.0924 0.055629,-0.12451 0.068466,-0.0884 0.2824228,-0.0482 0.325214,0.0602 0.027825,0.0381 0.03379,0.0429 0.064187,0.0325 0.089862,-0.14058 0.4621465,0.11608 0.5177755,0.35306 0.012837,0.0683 0.072745,0.15263 0.1240948,0.19279 0.055629,0.0402 0.1626071,0.18477 0.2396305,0.32133 0.119816,0.21689 0.132654,0.26108 0.0813,0.31731 -0.04707,0.0562 -0.04707,0.0723 0.01712,0.11648 0.124095,0.0843 0.235352,0.44182 0.19684,0.63462 -0.0214,0.12853 -0.01712,0.18476 0.03423,0.23697 0.111258,0.11648 0.154049,0.38559 0.07703,0.52216 -0.04707,0.0924 -0.05135,0.14058 -0.01712,0.20484 0.03423,0.0522 0.03851,0.18075 0.01712,0.36551 -0.01712,0.15665 -0.03851,0.46592 -0.04279,0.68683 -0.01284,0.49002 -0.124095,1.36564 -0.19684,1.5263 -0.02995,0.0683 -0.05563,0.19279 -0.05991,0.28116 -0.0043,0.21689 -0.1754447,0.54223 -0.2824223,0.54223 -0.059908,0 -0.081304,0.0281 -0.081304,0.11247 0,0.13254 -0.034233,0.18074 -0.1626072,0.24501 -0.089862,0.0442 -0.1155365,0.0321 -0.2567478,-0.10443 -0.3252143,-0.31329 -0.4792632,-0.38158 -0.4792632,-0.2169 0,0.0361 -0.068466,0.12452 -0.1497694,0.1928 -0.081303,0.0683 -0.1497697,0.16066 -0.1497697,0.20083 0,0.0442 -0.047071,0.12049 -0.1069784,0.17271 -0.059908,0.0522 -0.1069782,0.13255 -0.1069782,0.18074 0,0.0482 -0.05135,0.14058 -0.1112576,0.20083 0,0 -0.1069782,0.10845 -0.1069782,0.10845 0,0 0.085583,0.0884 0.085583,0.0884 0.1326528,0.13255 0.111257,0.15665 -0.089862,0.12853 0,0 -0.1797237,-0.0281 -0.1797237,-0.0281 0,0 0.2096778,0.15263 0.2096778,0.15263 0.205398,0.14861 0.2096769,0.15263 0.102699,0.16468 -0.064187,0.008 -0.188282,-0.0161 -0.2781436,-0.0522 -0.085583,-0.0321 -0.1626072,-0.0562 -0.1711649,-0.0482 -0.00856,0.004 0.064187,0.0803 0.1583274,0.1687 0.1112574,0.10041 0.1540489,0.16468 0.1198154,0.18074 -0.1072161,0.10035 0.023624,-0.018 -0.09844,0.0695 -0.1540488,-0.0121 -0.1411906,-0.009 -0.081283,0.0751 0.04707,0.0723 0.04707,0.0924 0.00428,0.10443 -0.029954,0.012 0.025675,0.0562 0.1240948,0.10443 0.1968398,0.0964 0.2567476,0.15665 0.1968398,0.21288 -0.04707,0.0442 -0.3508886,-0.0321 -0.8472683,-0.21288 -0.5691242,-0.20886 -0.5734039,-0.20886 -0.3594475,-0.0843 0.3380517,0.18878 0.5027679,0.34145 0.6824916,0.50211 0,0 0.053057,0.0758 0.053057,0.0758 0,0 0.011994,0.0217 0.011994,0.0217 -0.068467,0.008 -0.2340462,-0.005 -0.443724,-0.10556 -0.1882815,-0.0884 -0.4107961,-0.17271 -0.4878211,-0.18878 -0.1412111,-0.0241 -0.1412111,-0.0241 0.1454908,0.26108 0.4878214,0.48601 0.4792631,0.5824 -0.017116,0.26911 -0.3080974,-0.19279 -0.3765644,-0.21689 -0.3765644,-0.12451 0,0.0321 -0.031501,0.0581 -0.042791,0.0723 -0.025675,0.008 0.022674,0.0748 0.068466,0.16067 0.1026996,0.13254 0.1112579,0.23296 0.021396,0.23296 -0.021396,0 -0.1069779,-0.0442 -0.1882815,-0.10042 -0.6640764,-0.55474 -0.5672436,0.0144 -0.5924142,0.0146 -0.1641911,-0.0643 -0.383778,-0.0116 -0.4398647,0.12875 -0.034233,0.004 -0.1145288,-0.12726 -0.1444829,-0.10718 -0.04707,0.0281 -0.05135,0.0161 -0.012837,-0.0522 0.029954,-0.0442 0.085582,-0.0844 0.1326528,-0.0844 0.158328,0 0.1326531,-0.0843 -0.1026988,-0.30928 -0.1626074,-0.15664 -0.2396318,-0.20886 -0.2396318,-0.16066 0,0.0362 -0.029954,0.0683 -0.064187,0.0683 -0.034233,0 -0.064187,0.0362 -0.064187,0.0803 0,0.0884 -0.064187,0.10845 -0.102699,0.0321 -0.012838,-0.0281 -0.012838,-0.004 0,0.0562 0.034233,0.14058 -0.012838,0.21288 -0.094141,0.14861 -0.051349,-0.0402 -0.055629,-0.0362 -0.034233,0.0161 0.012838,0.0361 -0.00428,0.0964 -0.042791,0.12853 -0.077024,0.0763 -0.025675,0.22091 0.081304,0.22091 0.077024,0 0.1626066,0.14861 0.1240948,0.20886 -0.021396,0.0281 -0.047071,0.0241 -0.085583,-0.0241 -0.029954,-0.0402 -0.072745,-0.0603 -0.09842,-0.0442 -0.025675,0.012 -0.047071,0.004 -0.047071,-0.0201 0,-0.0321 -0.025675,-0.0321 -0.085583,0 -0.05135,0.0281 -0.1412112,0.0281 -0.2524688,0.004 -0.1283742,-0.0241 -0.1925609,-0.0201 -0.2481898,0.0201 -0.042791,0.0281 -0.1069782,0.0562 -0.14549,0.0562 -0.038513,0 -0.1026999,0.0362 -0.1454911,0.0803 -0.042791,0.0442 -0.1026991,0.0803 -0.1369317,0.0803 -0.029954,0 -0.077025,0.0442 -0.098421,0.10041 -0.04707,0.11247 -0.077024,0.12452 -0.1112571,0.0482 0,0 0,0 0,0 m 2.3749185,-1.19693 c -0.1606828,-0.13536 -0.2922635,-0.22101 -0.3294926,-0.23698 -0.029954,0 -0.07447,-0.004 -0.1386566,-0.0405 -0.07467,-0.0272 -0.066312,0.008 0.1001439,0.19719 0.1326534,0.16467 0.2439105,0.32935 0.2439105,0.3655 0.4467328,-0.0829 0.3936806,-0.0522 0.1240948,-0.28517 0,0 0,0 0,0 m 1.4035555,-5.50672 c -0.012837,-0.0321 -0.025675,-0.0201 -0.025675,0.0241 -0.00428,0.0442 0.00856,0.0683 0.021396,0.0522 0.012838,-0.012 0.017117,-0.0482 0.00428,-0.0763 0,0 0,0 0,0"
         inkscape:connector-curvature="0" />
      <path
         id="path3866"
         d="m 5.092426,295.53945 c 0.016836,-0.006 0.050508,-0.006 0.07015,0 0.016836,0.009 0.00281,0.0145 -0.036478,0.0145 -0.039284,0 -0.053314,-0.006 -0.033672,-0.0145 0,0 0,0 0,0"
         style="fill:#ffffff;fill-opacity:0.94117647;filter:url(#filter95)"
         inkscape:connector-curvature="0" />
      <path
         id="path3868"
         d="m 6.136258,290.95825 c 0,-0.0203 0.00842,-0.0289 0.019642,-0.0203 0.00842,0.0116 0.00842,0.0289 0,0.0405 -0.011224,0.009 -0.019642,0 -0.019642,-0.0203 0,0 0,0 0,0"
         style="fill:#ffffff;fill-opacity:0.94117647;filter:url(#filter101)"
         inkscape:connector-curvature="0" />
    </g>
    <path
       sodipodi:nodetypes="cccssccccc"
       inkscape:connector-curvature="0"
       id="path4012"
       d="m 4.6654994,295.22723 c 0.00376,-7.5e-4 0.021997,-0.007 0.025745,-0.007 0.00139,-4.2e-4 -0.00139,4.1e-4 0,0 0.00167,-4.2e-4 0.022786,-2.1e-4 0.02576,-2.1e-4 l 0.037431,-7.5e-4 c 0.00725,-2.1e-4 0.016347,-5.6e-4 0.023405,5.4e-4 7.134e-4,1.1e-4 0.00167,-2e-4 0.00234,0 0.00305,5.6e-4 0.012603,0.002 0.014041,0.004 5.708e-4,5.5e-4 -0.1573508,0.0103 -0.1222452,0.0128 -0.1660779,3.2e-4 0.087528,-0.0116 0.088308,-0.0116"
       style="fill:none;stroke:#000000;stroke-width:0.02302651px;stroke-linecap:butt;stroke-linejoin:miter;stroke-opacity:1;filter:url(#filter4618)" />
    <path
       id="path5044"
       d="m 5.1418242,295.53635 c 0.00381,-2.9e-4 0.026278,-0.002 0.029056,4.5e-4 0.0013,5.7e-4 -0.00129,-5.8e-4 0,0 0.0015,7.5e-4 -0.016028,0.022 -0.018973,0.0223 0,0 -0.038713,0.002 -0.038713,0.002 -0.0072,-5.3e-4 -0.016238,-0.001 -0.023113,-0.003 -6.951e-4,-1.8e-4 -0.00167,3e-5 -0.00232,-2.3e-4 -0.00296,-8.7e-4 -0.00338,-0.0202 -0.0011,-0.0194 7.692e-4,1.3e-4 0.026008,10e-4 0.060453,0.008 -0.1643969,-0.0194 -0.038361,0.009 -0.039133,0.008 m -1.7113448,1.29233 c -4.97e-4,-0.004 -0.00558,-0.0244 -0.00438,-0.0279 4.57e-5,-10e-4 -5.52e-5,0.001 0,0 1.348e-4,-0.002 0.00705,-0.0216 0.008,-0.0244 0,0 0.011205,-0.0356 0.011205,-0.0356 0.00211,-0.007 0.00467,-0.0156 0.00796,-0.0219 3.31e-4,-6.4e-4 3.426e-4,-0.002 7.448e-4,-0.002 0.0015,-0.003 0.00799,-0.0118 0.010447,-0.012 7.671e-4,-2e-4 -0.029024,0.15301 -0.024201,0.11821 -0.01072,0.16541 0.012085,-0.085 0.012334,-0.0858 M 5.73779,295.66915 c -0.00343,-0.002 -0.021675,-0.008 -0.024638,-0.0102 -0.00136,-5.2e-4 0.00135,5.3e-4 0,0 -0.00158,-6.9e-4 -0.018145,-0.0138 -0.020497,-0.0156 0,0 -0.030055,-0.0223 -0.030055,-0.0223 -0.00586,-0.004 -0.013268,-0.01 -0.018176,-0.0147 -4.967e-4,-5.3e-4 -0.00144,-8.7e-4 -0.00185,-0.001 -0.00207,-0.002 -0.00874,-0.009 -0.00866,-0.0118 -1.149e-4,-7.8e-4 0.130716,0.0881 0.1044876,0.0647 0.1315119,0.10133 -0.076303,-0.0444 -0.07692,-0.0448 m 1.496263,-5.41644 c 4.397e-4,0.004 0.0054,0.0212 0.00573,0.0249 5.347e-4,0.001 -5.249e-4,-10e-4 0,0 5.59e-4,0.002 0.00218,0.0224 0.00244,0.0254 0,0 0.0027,0.018 0.0027,0.018 0.00528,-0.005 0.00673,-0.008 0.00921,-0.0149 2.491e-4,-6.8e-4 1.362e-4,-0.002 4.647e-4,-0.002 0.00115,-0.003 0.00453,-0.01 0.00624,-0.0115 4.422e-4,-6.5e-4 -0.031292,-0.0687 -0.036642,-0.0339 0.013225,-0.16528 0.02737,0.0639 0.02777,0.0633 m -1.0156506,0.68353 c 0.0018,0.003 0.00568,0.0231 0.00458,0.0266 -1.24e-5,10e-4 2.18e-5,-0.001 0,0 -9.43e-5,0.002 -0.030576,0.004 -0.031327,8.5e-4 0,0 -1.49e-5,-0.0395 -1.49e-5,-0.0395 0.00163,-0.007 0.030818,-0.003 0.031851,0.004 1.054e-4,7e-4 6.765e-4,0.002 6.848e-4,0.002 3.667e-4,0.003 0.00236,0.016 6.27e-5,0.0167 -6.836e-4,3.8e-4 -0.020677,-0.0356 -0.012751,-0.002 -0.048905,-0.15586 -0.00965,-0.0244 -0.00896,-0.0247"
       style="fill:none;stroke:#000000;stroke-width:0.02302651px;stroke-linecap:butt;stroke-linejoin:miter;stroke-opacity:1;filter:url(#filter4624)"
       inkscape:connector-curvature="0" />
  </g>
</svg>
